<svg xmlns="http://www.w3.org/2000/svg" width="33.001" height="37.633" viewBox="0 0 33.001 37.633">
  <g id="flechitas" transform="translate(33.001) rotate(90)">
    <g id="flecha" transform="translate(0 33.001) rotate(-90)">
      <path id="Path_1" data-name="Path 1" d="M14.872,18.137.679,3.944A2.309,2.309,0,1,1,3.944.679L16.5,13.236,29.057.679a2.311,2.311,0,0,1,3.265,3.272L18.137,18.137a2.307,2.307,0,0,1-1.636.679A2.278,2.278,0,0,1,14.872,18.137Z" transform="translate(0)"/>
    </g>
    <g id="flecha-2" data-name="flecha" transform="translate(18.816 33.001) rotate(-90)">
      <path id="Path_1-2" data-name="Path 1" d="M14.872,18.137.679,3.944A2.309,2.309,0,1,1,3.944.679L16.5,13.236,29.057.679a2.311,2.311,0,0,1,3.265,3.272L18.137,18.137a2.307,2.307,0,0,1-1.636.679A2.278,2.278,0,0,1,14.872,18.137Z" transform="translate(0)"/>
    </g>
  </g>
</svg>
